<svg width="241" height="86" viewBox="0 0 241 86" fill="none" xmlns="http://www.w3.org/2000/svg">
<rect width="241" height="86" fill="#1C4177"/>
<g clip-path="url(#clip0)">
<path fill-rule="evenodd" clip-rule="evenodd" d="M74.5245 52.3498H59.1605V51.2775C61.0261 51.1704 62.3426 50.8311 63.1113 50.2587C64.0252 49.544 64.4826 48.311 64.4826 46.5601V36.8028C64.4826 35.7659 64.0245 35.2479 63.1067 35.2479H47.5874C46.4501 35.2479 45.881 35.7659 45.881 36.8028V46.506C45.881 48.2936 46.3383 49.544 47.253 50.2587C48.021 50.9026 49.3562 51.242 51.2585 51.2775V52.3498H36.0046V51.2775C37.8335 51.2775 39.1777 50.9298 40.0379 50.2339C40.8964 49.5387 41.3267 48.3164 41.3267 46.5678V22.7487C41.3267 20.9292 40.8881 19.6805 40.0102 19.002C39.2775 18.431 37.943 18.1105 36.0046 18.0389V16.8596H51.2585V18.0389C49.2467 18.1806 47.8925 18.5019 47.1982 19.0003C46.3203 19.6421 45.881 20.8886 45.881 22.7396V31.5546C45.881 32.6238 46.4681 33.1569 47.6422 33.1569H63.1067C64.0245 33.1569 64.4826 32.5868 64.4826 31.4475V22.7396C64.4826 20.8886 64.0439 19.6593 63.166 19.054C62.5435 18.6619 61.209 18.3232 59.1605 18.0389V16.8596H74.5245V18.0389C72.5855 18.0389 71.2683 18.2893 70.5737 18.7885C69.6591 19.431 69.2018 20.6442 69.2018 22.4284V46.5134C69.2018 48.4053 69.6404 49.6901 70.5192 50.3681C71.2503 50.9036 72.5855 51.2067 74.5245 51.2775V52.3498Z" fill="#FEFEFE"/>
<path fill-rule="evenodd" clip-rule="evenodd" d="M91.9735 52.3498H76.5V51.2775C78.4383 51.2775 79.8193 50.957 80.6427 50.3145C81.4659 49.6729 81.8775 48.4235 81.8775 46.5678V22.7487C81.8775 20.8937 81.4015 19.627 80.4508 18.9483C79.6821 18.3783 78.3656 18.0752 76.5 18.0389V16.8596H91.9735V18.0389C89.961 18.146 88.6069 18.4491 87.9126 18.9483C87.0346 19.5908 86.596 20.8577 86.596 22.7487V46.5134C86.596 48.4053 87.0533 49.6901 87.9682 50.3681C88.736 50.9389 90.0705 51.242 91.9735 51.2775V52.3498Z" fill="#FEFEFE"/>
<path fill-rule="evenodd" clip-rule="evenodd" d="M129.506 52.3498H122.317C118.55 48.3473 114.013 42.9678 108.709 36.213H105.527C104.539 36.213 104.045 36.6602 104.045 37.5531V46.2381C104.045 48.1677 104.52 49.5085 105.472 50.2587C106.313 50.9744 107.74 51.3138 109.752 51.2775V52.3498H93.9489V51.2775C97.6432 51.3491 99.4906 49.6729 99.4906 46.2465V22.4284C99.4906 20.6795 98.9972 19.4672 98.0091 18.7885C97.167 18.2531 95.8144 18.0036 93.9489 18.0389V16.8596H111.343C114.636 16.8596 117.434 17.5209 119.738 18.8429C122.518 20.4512 123.909 22.7564 123.909 25.7589C123.909 28.1537 122.884 30.2975 120.837 32.1924C118.934 33.9071 116.684 34.9984 114.087 35.462C116.464 38.4292 118.861 41.3957 121.275 44.362C124.86 48.4362 127.603 50.7414 129.506 51.2775V52.3498ZM119.025 26.1593C119.025 21.2458 114.836 18.7892 106.46 18.7892C105.472 18.7892 104.822 19.014 104.512 19.4619C104.2 19.9114 104.045 20.6194 104.045 21.5859V33.0988C104.045 33.4224 104.183 33.7178 104.456 33.987C104.731 34.2556 105.033 34.3898 105.362 34.3898C109.02 34.3898 112.002 33.8883 114.306 32.8839C117.452 31.4851 119.025 29.2433 119.025 26.1593Z" fill="#FEFEFE"/>
<path fill-rule="evenodd" clip-rule="evenodd" d="M165.666 52.3499H151.234V51.2777C152.185 51.2777 153.081 51.1532 153.923 50.9028C155.13 50.5455 155.734 50.0094 155.734 49.2937C155.734 49.1158 154.452 46.2201 151.893 40.6086H135.816C135.12 42.039 134.444 43.4688 133.785 44.8985C132.833 47.0067 132.358 48.4008 132.358 49.0796C132.358 50.5455 133.785 51.2777 136.639 51.2777V52.3499H125.28V51.2777C127.402 51.135 129.176 49.6157 130.602 46.721L145.527 16.2693H145.966L160.453 47.2571C161.66 49.7943 163.398 51.135 165.666 51.2777V52.3499ZM151.35 38.6254L144.166 23.5149L136.943 38.6254H151.35Z" fill="#FEFEFE"/>
<mask id="mask0" mask-type="alpha" maskUnits="userSpaceOnUse" x="164" y="16" width="47" height="37">
<path d="M210.331 52.3498V16.8596H164.568V52.3498H210.331Z" fill="white"/>
</mask>
<g mask="url(#mask0)">
<path fill-rule="evenodd" clip-rule="evenodd" d="M210.331 52.3498H195.625V51.2775C197.454 51.1704 198.743 50.8137 199.494 50.2053C200.243 49.5974 200.619 48.4362 200.619 46.7208V22.9169L186.847 52.3498H185.859L172.14 22.9155V45.4335C172.14 47.5782 172.433 49.026 173.018 49.7763C173.713 50.6343 175.121 51.1349 177.243 51.2775V52.3498H164.568V51.2775C166.653 51.1349 168.043 50.5642 168.738 49.5651C169.25 48.7809 169.506 47.2999 169.506 45.1223V23.4456C169.506 21.4465 169.195 20.0997 168.574 19.4031C167.951 18.7079 166.616 18.2531 164.568 18.0389V16.8596H174.14L187.534 45.2089L200.739 16.8596H210.331V18.0389C208.685 18.0389 207.495 18.2531 206.764 18.6814C205.813 19.2161 205.337 20.2695 205.337 21.8393V46.0316C205.337 48.2093 205.63 49.5651 206.215 50.0996C206.691 50.5995 208.063 50.9925 210.331 51.2775V52.3498Z" fill="#FEFEFE"/>
</g>
<path fill-rule="evenodd" clip-rule="evenodd" d="M79.1755 60.8708C76.8076 60.8708 75.8365 62.9679 75.8365 65.015C75.8365 67.1121 76.7394 69.2256 79.1755 69.2256C81.6115 69.2256 82.5144 67.1121 82.5144 65.015C82.5144 62.9679 81.5434 60.8708 79.1755 60.8708Z" fill="#FEFEFE"/>
<mask id="mask1" mask-type="alpha" maskUnits="userSpaceOnUse" x="36" y="16" width="175" height="60">
<path d="M36.0043 75.1896H210.331V16.2693H36.0043V75.1896Z" fill="white"/>
</mask>
<g mask="url(#mask1)">
<path fill-rule="evenodd" clip-rule="evenodd" d="M36.0043 75.1896H210.297V54.699H36.0043V75.1896ZM56.7922 71.0566C52.9421 71.0566 50.2675 69.176 50.2675 65.2481C50.2675 61.2705 52.7546 59.0401 56.7922 59.0401C57.575 59.0401 58.6143 59.1895 59.4833 59.5228L59.313 61.487C58.4104 60.9871 57.5923 60.871 56.7405 60.871C54.2873 60.871 52.7546 62.7018 52.7546 65.0816C52.7546 67.4448 54.2536 69.2258 56.7922 69.2258C57.7288 69.2258 58.8363 69.026 59.3985 68.7433L59.5006 70.6903C58.6314 70.8901 57.6944 71.0566 56.7922 71.0566ZM79.175 71.0566C75.3593 71.0566 73.3499 68.5765 73.3499 65.0152C73.3499 61.4531 75.394 59.0401 79.175 59.0401C82.9061 59.0401 85.001 61.5028 85.001 65.0152C85.001 68.5268 82.9405 71.0566 79.175 71.0566ZM106.857 70.8568H99.8558V59.2399H102.24V69.026H106.857V70.8568ZM128.048 70.8568H121.047V59.2399H123.432V69.026H128.048V70.8568ZM149.29 70.8568H142.238V59.2399H149.257V61.07H144.623V63.9332H148.865V65.764H144.623V69.026H149.29V70.8568ZM174.178 70.4573C172.918 70.7904 171.606 71.0566 170.328 71.0566C166.479 71.0566 163.804 69.176 163.804 65.2474C163.804 61.2698 166.29 59.0401 170.328 59.0401C171.708 59.0401 172.799 59.2227 173.821 59.5228L173.667 61.4863C172.747 61.0707 171.555 60.871 170.601 60.871C167.824 60.871 166.29 62.7018 166.29 65.0816C166.29 67.4448 167.79 69.2258 170.328 69.2258C170.976 69.2258 171.487 69.1596 171.895 69.0592V66.0302H169.374V64.1994H174.178V70.4573ZM196.408 70.8568H189.356V59.2399H196.375V61.07H191.741V63.9332H195.983V65.764H191.741V69.026H196.408V70.8568Z" fill="#FEFEFE"/>
</g>
</g>
<defs>
<clipPath id="clip0">
<rect width="175" height="59" fill="white" transform="translate(33 14)"/>
</clipPath>
</defs>
</svg>
