<svg width="110" height="277" viewBox="0 0 110 277" fill="none" xmlns="http://www.w3.org/2000/svg">
<path d="M38.6943 257.382L37.9628 267.138L23.0859 262.26L29.182 254.944L38.6943 257.382Z" fill="#FEB8B8"/>
<path d="M92.8386 254.212L92.1056 263.723L83.8134 264.943L78.9356 260.309L84.545 251.285L92.8386 254.212Z" fill="#FEB8B8"/>
<path d="M98.9356 132.754C98.9356 132.754 105.521 140.559 97.2282 152.509C88.9356 164.46 78.9366 176.167 78.9366 176.167L60.3987 211.287C60.3987 211.287 50.8869 245.676 48.6918 246.651C46.4967 247.626 45.2775 243.724 46.4967 247.87C47.716 252.016 46.9844 251.773 46.0091 252.018C45.0337 252.262 42.351 251.774 43.3263 253.481C44.3017 255.189 45.0337 255.189 43.0825 255.189C41.1312 255.189 40.3997 253.969 40.3997 255.676C40.3997 257.383 38.6923 261.286 38.6923 261.286C38.6923 261.286 26.7416 257.871 26.2539 256.408C25.7662 254.944 29.4244 254.213 28.6928 252.75C27.9613 251.287 27.7175 251.286 27.7175 249.091C27.7175 246.897 29.181 246.409 29.181 246.409C29.181 246.409 30.4002 245.921 29.9125 244.945C29.4248 243.969 27.4736 244.458 29.9125 243.238C32.3514 242.018 42.3519 204.702 42.3519 204.702C42.3519 204.702 42.3519 186.164 45.5224 180.068C48.6928 173.972 46.2539 130.559 53.817 130.071C61.3801 129.583 98.9356 132.754 98.9356 132.754Z" fill="#2F2E41"/>
<path d="M96.4967 146.656L95.0332 184.459C95.0332 184.459 102.35 221.042 99.911 232.261C97.4721 243.48 99.1795 242.017 97.716 243.968C96.2524 245.919 95.0332 244.943 96.2524 246.651C97.4716 248.358 98.2011 248.846 96.2524 250.798C94.3037 252.75 93.3258 257.383 93.3258 257.383L80.8874 256.164C80.8874 256.164 84.0578 250.555 82.8361 249.335C81.6144 248.115 78.446 250.066 80.8874 247.386C83.3288 244.706 84.7899 245.923 83.3263 244.703C81.8628 243.484 79.6682 243.972 81.6189 242.021C83.5697 240.069 85.7662 240.072 83.814 239.338C81.8617 238.604 79.6667 239.338 80.6436 237.874C81.6204 236.411 82.8386 234.704 82.8386 234.704L79.912 212.51C79.912 212.51 76.4977 205.193 77.4731 202.023C78.4485 198.852 73.3258 172.756 73.3258 172.756L96.4967 146.656Z" fill="#2F2E41"/>
<path d="M91.1322 259.089C91.1322 259.089 93.5711 256.65 94.3027 258.114C95.0342 259.577 100.399 272.747 97.2293 273.722C94.0598 274.698 89.4248 275.671 86.9859 274.942C84.547 274.212 79.4253 270.794 73.3283 270.794C67.2313 270.794 62.1096 268.112 62.1096 267.136C62.1096 266.161 61.1342 260.307 65.7677 260.307C70.4012 260.307 78.9376 254.942 78.9376 254.942C78.9376 254.942 80.8864 251.039 81.8642 251.284C82.8421 251.528 82.1081 259.332 82.1081 259.332C82.1081 259.332 87.7165 264.698 91.1322 259.089Z" fill="#2F2E41"/>
<path d="M36.9874 262.259C36.9874 262.259 39.1825 256.894 41.3776 258.112C43.5726 259.33 42.1091 274.451 42.1091 274.451C42.1091 274.451 40.1604 277.622 34.5485 276.89C28.9367 276.159 14.0618 274.451 10.6471 275.183C7.23227 275.914 -2.0352 271.769 0.403715 266.159C0.403715 266.159 1.62291 262.988 7.4766 263.232C13.3303 263.476 24.0613 256.403 24.0613 256.403C24.0613 256.403 25.7687 251.525 26.2564 252.013C26.7441 252.501 27.2318 261.037 27.2318 261.037C27.2318 261.037 33.5731 265.186 36.9874 262.259Z" fill="#2F2E41"/>
<path d="M68.9372 37.3932C76.7496 37.3932 83.083 31.0598 83.083 23.2474C83.083 15.4349 76.7496 9.10156 68.9372 9.10156C61.1248 9.10156 54.7914 15.4349 54.7914 23.2474C54.7914 31.0598 61.1248 37.3932 68.9372 37.3932Z" fill="#FEB8B8"/>
<path d="M79.912 24.2228C79.912 24.2228 87.4726 39.3439 90.1553 40.8075C92.8381 42.271 71.8637 51.2952 71.8637 51.2952C71.8637 51.2952 68.4494 36.4178 64.3031 33.2474C60.1568 30.077 79.912 24.2228 79.912 24.2228Z" fill="#FEB8B8"/>
<path d="M58.2061 147.875L57.2308 157.143C57.2308 157.143 46.7436 153.485 50.1579 146.656L58.2061 147.875Z" fill="#FEB8B8"/>
<path d="M54.0614 133.973C61.3781 141.776 100.155 135.191 100.155 135.191L99.6692 129.582L104.547 124.464L103.084 100.561C103.084 100.561 107.472 89.3429 108.203 72.2705C108.247 71.2212 108.184 70.1699 108.014 69.1336C105.499 53.84 80.5966 43.9899 79.9125 44.2213C79.5683 44.3347 75.9027 46.245 72.0771 48.2546C67.6855 50.5616 63.086 53.0016 63.086 53.0016C57.2318 55.2001 58.2082 90.3208 56.2554 93.4907C54.3027 96.6607 56.2554 107.632 56.2554 107.632L54.0619 118.118C54.0619 118.118 46.7426 126.171 54.0614 133.973Z" fill="#F0F0F0"/>
<path opacity="0.1" d="M77.6984 56.5477C77.6984 56.5477 84.5275 77.0343 83.0639 90.9363C81.6004 104.838 65.7477 144.592 65.7477 144.592L60.3847 147.519V154.348L56.6107 144.125L66.9889 122.425C66.9889 122.425 54.0388 47.524 77.6984 56.5477Z" fill="black"/>
<path opacity="0.1" d="M71.2936 50.4006C78.3695 46.4992 89.1015 56.7465 100.32 67.7179C104.349 71.6568 106.679 71.2606 108.015 69.133C105.5 53.8394 80.5976 43.9893 79.9135 44.2207C79.5692 44.3341 75.9036 46.2444 72.0781 48.254L71.2936 50.4006Z" fill="black"/>
<path d="M71.2971 48.5155L74.2237 40.4672C74.2237 40.4672 94.2227 30.9554 107.393 40.4672L109.588 54.1248C109.588 54.1248 111.536 76.8066 100.32 65.8317C89.103 54.8569 78.369 44.613 71.2971 48.5155Z" fill="#F0F0F0"/>
<path d="M76.9859 53.2459C76.9859 53.2459 83.815 73.7326 82.3514 87.6345C80.8879 101.537 65.0352 141.291 65.0352 141.291L59.6697 144.219V151.048L48.451 147.878L50.8899 139.83C50.8899 139.83 46.9874 134.952 49.6707 133.488C52.3539 132.025 51.8658 123.976 51.8658 123.976C51.8658 123.976 53.3283 44.2218 76.9859 53.2459Z" fill="#F0F0F0"/>
<path d="M81.548 29.169C81.3171 28.0757 81.3481 26.8995 80.8244 25.9126C80.0385 24.4331 78.2321 23.814 76.5627 23.6681C74.4316 23.4827 72.2845 23.8515 70.1504 23.7056C68.0163 23.5597 65.7368 22.7462 64.6745 20.8899C64.2507 20.1494 64.0419 19.2775 63.4797 18.6354C62.31 17.2992 60.1779 17.5061 58.497 18.0787C56.816 18.6514 55.0627 19.4878 53.3443 19.0401C51.8993 14.9972 53.6786 10.3338 56.7561 7.34022C59.8336 4.34666 63.9839 2.73571 68.1062 1.53499C73.5432 -0.0489765 79.6617 -0.984869 84.6605 1.6759C91.9092 5.53389 94.4671 15.7458 93.7985 23.3568C93.5457 26.2339 93.1324 29.4918 90.8064 31.4341C87.3977 34.2812 82.5773 34.0369 81.548 29.169Z" fill="#2F2E41"/>
</svg>
