<?xml version="1.0" encoding="utf-8"?>
<!-- Generator: Adobe Illustrator 24.0.3, SVG Export Plug-In . SVG Version: 6.00 Build 0)  -->
<svg version="1.1" id="Layer_1" xmlns="http://www.w3.org/2000/svg" xmlns:xlink="http://www.w3.org/1999/xlink" x="0px" y="0px"
	 width="600px" height="197px" viewBox="0 0 600 197" style="enable-background:new 0 0 600 197;" xml:space="preserve">
<style type="text/css">
	.st0{fill:#002A4E;}
	.st1{fill:#003057;}
	.st2{fill:#335572;}
	.st3{fill:#FFFFFF;}
	.st4{fill:none;stroke:#002A4E;stroke-width:1.8588;stroke-miterlimit:10;}
	.st5{fill:none;}
	.st6{fill:#F5B335;}
</style>
<path id="XMLID_632_" class="st0" d="M3.3,42c0,0,67.3-35.5,134.1,0c0,0,18,89.8-64.2,149.6C73.2,191.6-9.3,154.6,3.3,42z"/>
<g id="XMLID_121_">
	<path id="XMLID_122_" class="st1" d="M152.6,146.3h-8.2v-2h18.6v2h-8.2v22h-2.2V146.3z"/>
	<path id="XMLID_124_" class="st1" d="M173.5,144.3h14.7v2h-12.4v8.5h11.7v2h-11.7v9.4h13v2h-15.2V144.3z"/>
	<path id="XMLID_126_" class="st1" d="M220.2,164.5c-2.3,3.1-5.4,4.4-8.9,4.4c-7.3,0-12.4-5.3-12.4-12.6c0-7.3,5.1-12.6,12.4-12.6
		c3.3,0,6.2,1.1,8.3,3.8l-1.8,1.5c-1.5-2.2-4-3.3-6.4-3.3c-6.3,0-10.2,4.6-10.2,10.6c0,6,3.9,10.6,10.2,10.6c2.4,0,5.4-1.2,7.1-3.7
		L220.2,164.5z"/>
	<path id="XMLID_128_" class="st1" d="M231,144.3h2.2v10.6h13.4v-10.6h2.2v24h-2.2v-11.4h-13.4v11.4H231V144.3z"/>
	<path id="XMLID_130_" class="st1" d="M262.3,144.3h2.9l14.6,21h0.1v-21h2.2v24h-2.9l-14.6-21h-0.1v21h-2.2V144.3z"/>
	<path id="XMLID_132_" class="st1" d="M295.4,144.3h2.2v24h-2.2V144.3z"/>
	<path id="XMLID_134_" class="st1" d="M330.8,164.5c-2.3,3.1-5.4,4.4-8.9,4.4c-7.3,0-12.4-5.3-12.4-12.6c0-7.3,5.1-12.6,12.4-12.6
		c3.3,0,6.2,1.1,8.3,3.8l-1.8,1.5c-1.5-2.2-4-3.3-6.4-3.3c-6.3,0-10.2,4.6-10.2,10.6c0,6,3.9,10.6,10.2,10.6c2.4,0,5.4-1.2,7.1-3.7
		L330.8,164.5z"/>
	<path id="XMLID_136_" class="st1" d="M349,144.3h2.3l10.1,24h-2.5l-2.6-6.4h-12.7l-2.7,6.4h-2.3L349,144.3z M350.1,146.7l-5.6,13.2
		h11L350.1,146.7z"/>
	<path id="XMLID_139_" class="st1" d="M371.7,144.3h2.2v22h11.2v2h-13.4V144.3z"/>
	<path id="XMLID_141_" class="st1" d="M430.7,164.5c-2.3,3.1-5.4,4.4-8.9,4.4c-7.3,0-12.4-5.3-12.4-12.6c0-7.3,5.1-12.6,12.4-12.6
		c3.3,0,6.2,1.1,8.3,3.8l-1.8,1.5c-1.5-2.2-4-3.3-6.4-3.3c-6.3,0-10.2,4.6-10.2,10.6c0,6,3.9,10.6,10.2,10.6c2.4,0,5.4-1.2,7.1-3.7
		L430.7,164.5z"/>
	<path id="XMLID_143_" class="st1" d="M452.5,143.6c7.3,0,12.4,5.3,12.4,12.6c0,7.3-5.1,12.6-12.4,12.6s-12.4-5.3-12.4-12.6
		C440,148.9,445.1,143.6,452.5,143.6z M452.5,166.8c6.3,0,10.2-4.6,10.2-10.6c0-6-3.9-10.6-10.2-10.6c-6.3,0-10.2,4.6-10.2,10.6
		C442.3,162.2,446.2,166.8,452.5,166.8z"/>
	<path id="XMLID_146_" class="st1" d="M476.6,144.3h2.2v22h11.2v2h-13.4V144.3z"/>
	<path id="XMLID_148_" class="st1" d="M500.4,144.3h2.2v22h11.2v2h-13.4V144.3z"/>
	<path id="XMLID_150_" class="st1" d="M524.1,144.3h14.7v2h-12.4v8.5H538v2h-11.7v9.4h13v2h-15.2V144.3z"/>
	<path id="XMLID_152_" class="st1" d="M570.8,166.7c-2.8,1.6-5.8,2.2-9,2.2c-7.3,0-12.4-5.3-12.4-12.6c0-7.3,5.1-12.6,12.4-12.6
		c3.6,0,6.4,1.1,8.6,3.3l-1.6,1.7c-1.5-1.8-4.4-3-7-3c-6.3,0-10.2,4.6-10.2,10.6c0,6,3.9,10.6,10.2,10.6c2.6,0,4.9-0.3,6.7-1.4v-8.1
		h-5.8v-2h8V166.7z"/>
	<path id="XMLID_154_" class="st1" d="M584.1,144.3h14.7v2h-12.4v8.5H598v2h-11.7v9.4h13v2h-15.2V144.3z"/>
</g>
<g id="XMLID_36_">
	<path id="XMLID_102_" class="st1" d="M144.4,77.2h22.2c12.4,0,22.7,4,22.7,18.1c0,14-9.5,18.3-22.1,18.3h-9.6v23.2h-13.1V77.2z
		 M157.5,102.5h8.8c4.6,0,9.3-1.6,9.3-7.2c0-6.1-6.2-7-11.3-7h-6.7V102.5z"/>
	<path id="XMLID_105_" class="st1" d="M197.3,77.2h13.1v59.6h-13.1V77.2z"/>
	<path id="XMLID_107_" class="st1" d="M222.9,77.2h40.5v12.1h-27.4v11.1h25.9v12.1h-25.9v12.1h28.9v12.1h-42V77.2z"/>
	<path id="XMLID_109_" class="st1" d="M275.5,77.2h19.7c19.2,0,35.3,8.2,35.3,30c0,19.3-15.8,29.6-33.5,29.6h-21.5V77.2z
		 M288.6,124.7h6.8c12.2,0,21.4-4.6,21.4-18.2c0-11.7-9.3-17.2-20.5-17.2h-7.7V124.7z"/>
	<path id="XMLID_112_" class="st1" d="M339.4,77.2h19.9l13.7,38.9h0.2L387,77.2h19.8v59.6h-13.1V91.1h-0.2l-15.7,45.7h-10
		l-15.1-45.7h-0.2v45.7h-13.1V77.2z"/>
	<path id="XMLID_114_" class="st1" d="M447.9,75.7c18.6,0,32.2,12.2,32.2,31.3s-13.6,31.3-32.2,31.3c-18.6,0-32.2-12.2-32.2-31.3
		S429.3,75.7,447.9,75.7z M447.9,126.3c11.2,0,18.5-8.1,18.5-19.2c0-11.1-7.3-19.2-18.5-19.2c-11.2,0-18.5,8.1-18.5,19.2
		C429.4,118.2,436.7,126.3,447.9,126.3z"/>
	<path id="XMLID_117_" class="st1" d="M489,77.2h17.9l25.4,41.4h0.2V77.2h13.1v59.6h-17.2l-26-42.5h-0.2v42.5H489V77.2z"/>
	<path id="XMLID_119_" class="st1" d="M569.2,88.9h-17V77.2h47.2v11.6h-17v48h-13.1V88.9z"/>
</g>
<g>
	<path class="st2" d="M137.6,80.7c0.4-4.4,0.7-8.9,0.7-13.4L77,84c-0.2-0.4-0.3-0.7-0.6-1.1L138,51.7c-0.2-3.4-0.4-6.9-0.8-10.4
		c-2.1-0.9-4.2-1.8-6.3-2.7L75.8,82c-0.2-0.3-0.5-0.6-0.8-0.8l41.3-47.7c-4.5-1.4-8.9-2.6-13.4-3.5L74.1,80.5
		c-0.6-0.4-1.3-0.7-2.1-0.9l18.1-51.8c-3.9-0.5-7.9-0.9-11.8-1.1l-7.2,52.7c-0.3,0-0.6-0.1-1-0.1c-0.3,0-0.6,0-0.9,0.1l0.2-52.9
		c-3.7,0-7.5,0.2-11.2,0.6l10,52.5c-0.3,0.1-0.7,0.2-1,0.3L46.6,28.5c-4.1,0.7-8.2,1.5-12.2,2.5l31.9,49.5c-0.3,0.2-0.6,0.4-0.9,0.6
		L20.3,35c-5.2,1.7-10.4,3.8-15.6,6.1l59.8,40.8c-1.2,1.3-1.9,3-1.9,4.9c0,1.3,0.3,2.5,0.9,3.6c-0.1-0.1-0.2-0.3-0.2-0.4L9.6,111.7
		c1.3,4.2,2.8,8.4,4.5,12.5l49.8-33.1c-0.1-0.2-0.3-0.4-0.4-0.7c0.3,0.6,0.8,1.2,1.3,1.7c0,0,0,0-0.1,0L20.2,137
		c2.4,4.5,5.2,9,8.2,13.3l37.4-57.4c0.4,0.3,0.7,0.5,1.1,0.7L39.3,164c4.3,4.8,9.1,9.4,14.3,13.9l14.4-84c0.6,0.2,1.3,0.3,2,0.3
		c0.4,0,0.8,0,1.2-0.1l1.7,97.1c6.6-4.9,12.7-9.9,18.2-15.1L73,93.7c0.4-0.2,0.8-0.4,1.2-0.6l31.1,68c3.8-4.6,7.2-9.3,10.2-14
		L75.2,92.3c0.3-0.3,0.6-0.6,0.8-0.9l47.2,42c2.1-4.2,3.9-8.4,5.5-12.7l-52-30.2c0.4-0.8,0.7-1.7,0.9-2.6l55.5,19.3
		c1.1-4.3,2.1-8.7,2.9-13.1l-58.3-7.6c0-0.4-0.1-0.9-0.2-1.3L137.6,80.7z"/>
	<path class="st2" d="M63.2,83.9L2.5,57.8c0,4.8,0.1,9.6,0.3,14.3l60,12.8C62.9,84.6,63.1,84.3,63.2,83.9z"/>
	<path class="st2" d="M62.6,86.8c0-0.3,0-0.5,0-0.8L4,85.2c0.6,4.3,1.3,8.6,2.1,12.9l56.4-11.1C62.6,87,62.6,86.9,62.6,86.8z"/>
</g>
<path id="XMLID_934_" class="st3" d="M14.1,128.1l62.4,0.4v26c0,0-0.9,8.5-8.5,10.1l-29.7-0.8c0,0-4.8-6.1-9.2-10.6L14.1,128.1z"/>
<polyline id="XMLID_1_" class="st3" points="62.4,185.4 43.8,169.7 62.4,170.6 "/>
<path id="XMLID_2_" class="st4" d="M4,42C4,42,71.2,6.5,138,42c0,0,18,89.8-64.2,149.6C73.8,191.6-8.7,154.6,4,42z"/>
<g>
	<path class="st5" d="M79.7,76.8c0,0-37.4,23.4-24.6,44.2h7c-1-2.2-3.9-13.8,29.6-29.9c38.6-18.6,34.8-55.6,34.8-55.6
		s-6.6,30-73.6,37.3c0,0-44.9,3.5-28.3,48.3H36C34,117,19.7,84.2,79.7,76.8z"/>
	<path class="st6" d="M79.7,76.8C19.7,84.2,34,117,36,121h19.1C42.2,100.2,79.7,76.8,79.7,76.8z"/>
	<path class="st6" d="M124.5,4.4c-1.9,32.9-2.2,30.7-22.8,43.3c-20.5,12.6-37.9,6-73.3,21.2C-4.8,83.1,11.3,116.7,13.1,121h11.4
		C7.9,76.1,52.8,72.7,52.8,72.7c67-7.3,73.6-37.3,73.6-37.3s3.8,37-34.8,55.6c-33.5,16.2-30.5,27.7-29.6,29.9h14.4
		c-1.8-1.3-7.8-6.2,19.3-21.7c33.2-19,37-42.7,37.6-61.6S124.5,4.4,124.5,4.4z"/>
</g>
</svg>
